<svg width="40" height="40" viewBox="0 0 40 40" fill="none" xmlns="http://www.w3.org/2000/svg">
<rect width="40" height="40" rx="20" fill="#2765DD" fill-opacity="0.1"/>
<path d="M21 9L21.001 12.062C24.6192 12.5136 27.4869 15.3816 27.9381 19H31V21L27.938 21.001C27.4864 24.6189 24.6189 27.4864 21.001 27.938L21 31H19V27.9381C15.3816 27.4869 12.5136 24.6192 12.062 21.001L9 21V19H12.0619C12.5131 15.3813 15.3813 12.5131 19 12.0619V9H21ZM20 14C16.6863 14 14 16.6863 14 20C14 23.3137 16.6863 26 20 26C23.3137 26 26 23.3137 26 20C26 16.6863 23.3137 14 20 14ZM20 18C21.1046 18 22 18.8954 22 20C22 21.1046 21.1046 22 20 22C18.8954 22 18 21.1046 18 20C18 18.8954 18.8954 18 20 18Z" fill="#2765DD"/>
</svg>
